<?xml version="1.0" standalone="no"?>
<!DOCTYPE svg PUBLIC "-//W3C//DTD SVG 20010904//EN"
 "http://www.w3.org/TR/2001/REC-SVG-20010904/DTD/svg10.dtd">
<svg version="1.0" xmlns="http://www.w3.org/2000/svg"
 width="32.000000pt" height="32.000000pt" viewBox="0 0 32.000000 32.000000"
 preserveAspectRatio="xMidYMid meet">

<g transform="translate(0.000000,32.000000) scale(0.100000,-0.100000)"
fill="#000000" stroke="none">
<path d="M86 277 c3 -10 9 -15 12 -12 3 3 0 11 -7 18 -10 9 -11 8 -5 -6z"/>
<path d="M226 273 c-6 -14 -5 -15 5 -6 7 7 10 15 7 18 -3 3 -9 -2 -12 -12z"/>
<path d="M105 225 c-31 -30 -32 -57 -3 -117 21 -43 26 -47 58 -47 32 0 37 4
58 47 12 26 22 57 22 70 0 33 -43 72 -80 72 -19 0 -40 -9 -55 -25z m102 -7
c29 -27 29 -52 1 -105 -18 -33 -29 -43 -48 -43 -19 0 -30 10 -48 42 -28 54
-28 76 0 105 27 29 65 29 95 1z"/>
<path d="M177 218 c12 -6 27 -22 32 -37 8 -22 10 -23 10 -5 1 23 -28 54 -50
53 -8 0 -4 -5 8 -11z"/>
<path d="M30 236 c0 -2 7 -7 16 -10 8 -3 12 -2 9 4 -6 10 -25 14 -25 6z"/>
<path d="M265 230 c-3 -6 1 -7 9 -4 18 7 21 14 7 14 -6 0 -13 -4 -16 -10z"/>
<path d="M120 40 c0 -5 18 -10 40 -10 22 0 40 5 40 10 0 6 -18 10 -40 10 -22
0 -40 -4 -40 -10z"/>
<path d="M130 10 c0 -5 14 -10 30 -10 17 0 30 5 30 10 0 6 -13 10 -30 10 -16
0 -30 -4 -30 -10z"/>
</g>
</svg>
